<?xml version="1.0" standalone="no"?>
<!DOCTYPE svg PUBLIC "-//W3C//DTD SVG 20010904//EN"
 "http://www.w3.org/TR/2001/REC-SVG-20010904/DTD/svg10.dtd">
<svg version="1.0" xmlns="http://www.w3.org/2000/svg"
 width="512.000000pt" height="512.000000pt" viewBox="0 0 512.000000 512.000000"
 preserveAspectRatio="xMidYMid meet">
<metadata>
Created by potrace 1.16, written by Peter Selinger 2001-2019
</metadata>
<g transform="translate(0.000000,512.000000) scale(0.100000,-0.100000)"
fill="#000000" stroke="none">
<path d="M2355 5013 c-565 -49 -1093 -290 -1499 -683 -390 -378 -629 -840
-723 -1397 -26 -155 -26 -581 0 -736 94 -556 337 -1024 725 -1399 407 -392
915 -625 1482 -679 151 -14 444 -6 585 16 248 38 498 117 720 225 731 358
1231 1048 1351 1865 25 165 25 514 1 680 -103 706 -488 1316 -1075 1706 -413
274 -882 413 -1376 407 -83 -1 -169 -3 -191 -5z m560 -58 c247 -38 473 -110
710 -225 248 -120 457 -273 661 -481 377 -386 607 -872 670 -1415 20 -167 14
-462 -11 -624 -62 -394 -220 -769 -460 -1088 -40 -53 -82 -105 -93 -114 -20
-16 -21 -16 -32 15 -6 18 -29 52 -50 77 l-39 44 35 -99 35 -99 -38 -38 c-35
-36 -39 -37 -50 -21 -18 25 -56 73 -69 87 -6 6 -13 18 -17 26 -4 12 -6 11 -6
-3 -1 -17 -4 -17 -33 4 -41 28 -48 38 -41 57 3 8 2 17 -3 21 -19 13 -41 77
-38 111 1 19 -3 41 -9 49 -9 12 -9 13 1 7 6 -4 12 -3 12 3 0 16 -43 36 -48 22
-6 -17 -22 -13 -23 7 0 13 -2 14 -6 2 -18 -45 -50 -48 -67 -6 -20 49 -36 54
-29 10 3 -20 2 -39 -3 -43 -5 -3 -20 -21 -33 -40 -31 -44 -25 -82 27 -192 22
-46 46 -102 52 -124 7 -22 25 -65 41 -96 35 -71 51 -133 36 -148 -18 -18 -26
-13 -47 29 -11 22 -27 40 -35 40 -18 0 -35 31 -35 63 0 14 -7 27 -15 31 -12 4
-15 -3 -15 -34 0 -21 4 -41 9 -44 4 -3 14 -27 21 -53 8 -27 20 -58 28 -70 13
-21 11 -24 -50 -63 -34 -22 -91 -55 -126 -72 l-63 -33 -20 24 c-10 13 -19 19
-19 15 0 -5 -6 2 -13 16 -18 36 -16 142 3 147 9 3 11 1 4 -4 -7 -5 -4 -14 8
-26 18 -17 18 -16 12 21 -4 26 -2 43 8 53 46 47 85 176 87 294 1 39 6 85 12
102 6 18 8 36 6 40 -7 11 11 111 28 156 24 61 20 84 -17 96 -74 24 -143 39
-128 28 23 -18 53 -68 45 -75 -4 -4 -18 7 -32 23 l-24 30 6 -55 c4 -30 13 -68
21 -84 8 -16 12 -31 10 -34 -9 -8 -65 61 -71 87 -4 14 -30 67 -59 116 -43 75
-58 92 -86 101 -23 8 -36 8 -39 2 -5 -14 26 -152 50 -223 12 -33 34 -107 51
-165 16 -58 34 -113 39 -122 5 -10 9 -27 9 -38 0 -11 5 -20 10 -20 13 0 13
-37 -1 -42 -7 -2 -7 -17 -1 -45 8 -33 7 -45 -4 -54 -9 -7 -12 -20 -8 -33 6
-20 6 -20 -8 -2 -9 11 -20 16 -27 12 -8 -5 -11 6 -10 37 2 33 6 44 16 40 19
-7 16 32 -8 97 -11 30 -22 66 -24 80 -2 13 -8 26 -12 27 -5 2 -8 31 -7 66 2
52 -5 81 -43 181 -24 66 -56 142 -70 170 -25 51 -25 51 -3 31 l23 -20 -23 43
c-41 74 -42 66 -15 -128 9 -63 20 -125 25 -137 7 -16 6 -23 -1 -23 -7 0 -9
-10 -4 -27 9 -36 7 -325 -3 -335 -4 -4 -6 59 -4 139 4 160 1 184 -27 210 -12
11 -27 56 -40 118 -12 55 -31 137 -42 182 -10 45 -19 90 -19 100 0 11 -8 42
-17 69 l-17 49 -8 -63 c-10 -92 -91 -234 -187 -330 -26 -26 -62 -67 -81 -92
-31 -40 -84 -102 -132 -151 -53 -56 -111 -59 -115 -5 -1 16 -9 36 -16 45 -8 9
-18 41 -21 71 -4 30 -13 64 -20 75 -7 11 -11 34 -8 53 3 25 9 32 26 32 13 0
26 3 30 7 8 9 42 14 84 14 17 0 32 5 32 11 0 7 5 6 14 -1 8 -7 16 -8 18 -3 3
8 92 42 116 44 33 3 162 152 169 196 4 22 11 32 23 32 18 0 30 36 30 91 0 17
8 34 21 43 15 10 19 20 14 35 -3 12 -11 19 -16 16 -5 -4 -12 0 -15 9 -3 8 -13
17 -21 20 -13 5 -14 4 -3 -9 11 -13 10 -14 -5 -9 -15 6 -16 4 -6 -14 6 -11 11
-29 11 -39 0 -15 -2 -14 -16 5 -13 19 -17 20 -29 8 -14 -14 -62 -15 -83 -2 -6
3 -13 2 -17 -3 -7 -13 -36 -3 -52 17 -8 10 -13 11 -13 4 0 -7 -9 -12 -19 -12
-11 0 -23 -5 -26 -10 -12 -19 -26 2 -20 29 3 16 0 34 -9 46 -20 26 -20 41 -1
25 8 -7 15 -9 15 -6 0 11 -30 39 -30 29 0 -4 -8 1 -16 12 -15 19 -16 16 -10
-40 3 -33 3 -53 -1 -45 -3 8 -10 18 -15 21 -6 4 -11 30 -11 59 -2 44 2 55 21
67 12 9 22 21 22 27 0 6 16 20 35 30 19 11 35 23 35 28 0 4 6 8 14 8 7 0 19 7
26 15 7 8 23 15 37 15 13 0 31 7 39 15 22 22 31 19 43 -15 12 -36 37 -39 74
-10 16 13 28 16 32 10 10 -16 25 -12 25 6 0 12 6 15 21 11 16 -4 19 -2 15 10
-5 13 -4 14 9 3 13 -11 15 -9 15 12 0 14 3 28 7 32 7 7 10 17 15 46 5 35 -16
109 -39 136 -31 36 -43 66 -37 91 6 22 -35 87 -56 89 -34 4 -60 17 -65 35 -7
23 -41 43 -72 44 -28 1 -28 -3 -3 -83 14 -46 29 -71 57 -95 21 -17 52 -47 71
-66 32 -33 32 -34 14 -51 -20 -19 -65 -17 -91 4 -11 8 -13 8 -7 -2 6 -10 2
-10 -18 -1 -14 7 -28 20 -31 29 -3 9 -26 26 -51 36 l-45 19 31 25 c29 23 30
27 16 39 -20 17 -96 25 -115 13 -17 -12 -6 -32 18 -32 37 0 59 -58 24 -62 -32
-2 -113 9 -121 17 -3 3 0 20 6 38 7 19 12 45 12 58 0 14 11 53 25 87 24 58 34
129 17 118 -4 -2 -15 2 -25 9 -18 13 -31 53 -42 125 -7 46 -17 101 -22 120 -3
8 -6 22 -7 30 -2 8 -7 24 -12 35 -15 33 -11 275 5 284 7 5 11 12 9 17 -1 5 5
10 15 12 12 2 17 -3 17 -17 0 -12 5 -21 11 -21 6 0 17 -7 25 -15 21 -21 50
-19 84 6 19 15 34 19 47 14 10 -5 24 -7 31 -6 17 3 15 -16 -4 -31 -52 -41 -82
-81 -93 -122 -15 -62 -15 -67 17 -105 42 -51 82 -92 82 -85 0 3 11 -1 25 -10
14 -9 25 -12 25 -7 0 5 18 7 40 4 43 -6 49 1 24 28 -18 20 -12 49 10 49 8 0
28 14 44 30 17 17 39 30 49 30 10 0 28 7 40 15 12 8 28 12 37 9 10 -4 16 -1
16 9 0 9 -29 35 -65 58 -36 23 -65 46 -65 50 0 5 19 9 43 10 47 1 46 1 -35 24
-64 18 -74 36 -28 55 16 7 32 21 35 31 4 10 11 19 16 19 12 0 12 47 -1 55 -5
3 -18 0 -29 -7 -15 -9 -23 -9 -36 2 -9 7 -40 15 -68 16 -43 2 -56 8 -74 30
-12 15 -29 29 -39 30 -20 3 -34 22 -34 48 0 11 5 16 14 13 18 -7 9 31 -14 58
-9 11 -22 39 -29 63 -11 39 -14 42 -46 42 -23 0 -34 -4 -32 -12 1 -8 -7 -12
-20 -10 -13 2 -23 -1 -23 -6 0 -5 -13 -9 -30 -10 l-30 -1 16 30 c8 16 19 27
24 24 6 -4 10 -1 10 5 0 6 5 8 11 4 6 -3 3 6 -7 21 -14 22 -15 31 -6 46 16 25
15 59 0 59 -8 0 -9 3 -3 8 13 9 45 103 45 130 0 12 -4 23 -9 27 -21 12 24 97
54 103 6 1 11 7 11 12 1 6 3 13 4 18 1 4 2 10 1 15 0 4 6 7 14 7 8 0 15 -9 15
-19 0 -11 5 -23 10 -26 6 -4 10 10 10 34 0 34 5 42 33 59 53 34 82 37 100 12
9 -12 20 -19 25 -16 15 9 42 -4 42 -19 0 -26 23 -28 41 -4 l19 24 23 -25 c12
-14 34 -31 47 -38 22 -11 94 -119 164 -244 12 -21 25 -38 29 -38 5 0 5 6 0 13
-4 6 -8 17 -8 22 -3 39 -20 86 -36 101 -10 9 -19 24 -19 32 0 9 -6 23 -13 31
-8 9 -22 36 -31 60 -10 25 -26 57 -37 72 l-19 27 25 16 c13 9 29 16 34 16 5 0
13 4 16 10 4 7 -3 7 -20 0 -36 -14 -45 -13 -45 5 0 8 4 15 9 15 6 0 6 12 0 30
-6 17 -14 30 -18 30 -4 0 -15 14 -25 30 -9 17 -22 27 -28 24 -6 -4 -8 -2 -5 3
8 12 -20 39 -30 29 -3 -3 -1 -17 5 -31 15 -33 -3 -34 -32 -2 -12 13 -27 22
-33 20 -6 -2 -14 1 -18 6 -3 6 -1 11 5 11 7 0 0 14 -14 31 -14 17 -27 35 -27
40 -1 5 -2 15 -3 22 0 6 -35 35 -78 63 -96 65 -233 109 -333 107 -200 -5 -461
-16 -507 -23 -122 -18 -231 -62 -236 -97 -2 -12 -19 -36 -38 -52 -19 -17 -34
-35 -34 -40 0 -5 -11 -16 -24 -25 -41 -27 -97 -89 -127 -141 -16 -27 -44 -63
-64 -78 -26 -21 -35 -35 -35 -58 0 -21 -10 -41 -32 -62 -47 -47 -116 -158
-143 -232 -24 -62 -24 -71 -15 -154 9 -80 37 -187 40 -151 0 9 7 4 16 -12 8
-16 19 -28 25 -28 6 0 7 -6 3 -12 -6 -10 -4 -10 8 0 12 9 18 10 23 2 6 -9 6
-223 2 -355 -1 -11 2 -32 6 -47 7 -26 5 -28 -22 -28 -23 0 -29 -4 -25 -15 5
-11 -1 -15 -20 -15 -40 0 -49 -30 -43 -141 3 -64 12 -111 24 -140 18 -39 155
-249 189 -290 8 -8 14 -32 14 -53 0 -74 42 -116 105 -104 17 4 25 1 25 -8 0
-8 4 -14 9 -14 4 0 14 -40 21 -89 8 -50 17 -88 20 -86 4 2 19 -21 34 -52 24
-50 27 -65 27 -171 0 -101 -3 -117 -18 -126 -55 -29 -101 -94 -147 -206 -27
-64 -53 -123 -60 -131 -6 -8 -49 -34 -96 -57 -156 -78 -294 -170 -365 -243
-33 -33 -157 -132 -208 -164 -18 -11 -52 -35 -76 -53 -31 -22 -47 -29 -52 -21
-4 8 -9 4 -14 -10 -4 -12 -12 -20 -18 -18 -20 6 -133 145 -206 252 -364 533
-498 1181 -375 1816 89 463 303 872 634 1213 401 413 906 660 1487 726 119 13
471 5 598 -15z m-125 -4538 c0 -8 11 -23 24 -36 15 -14 22 -29 19 -45 -6 -28
12 -42 32 -26 21 17 20 -6 0 -27 -9 -8 -13 -18 -10 -21 3 -4 10 -1 14 6 10 17
35 -39 28 -65 -4 -14 -5 -14 -6 5 -1 29 -19 28 -30 -2 -6 -15 -20 -25 -41 -30
-72 -14 -70 -17 -66 97 2 56 7 114 11 130 7 28 25 38 25 14z"/>
</g>
</svg>
